<?xml version="1.0" standalone="no"?>
<!DOCTYPE svg PUBLIC "-//W3C//DTD SVG 1.1//EN" "http://www.w3.org/Graphics/SVG/1.1/DTD/svg11.dtd">
<svg width="700px" height="500px" version="1.1" xmlns="http://www.w3.org/2000/svg" xmlns:xlink="http://www.w3.org/1999/xlink">
    <defs xmlns="http://www.w3.org/1999/xhtml">
        <style type="text/css">
            <![CDATA[path { stroke: black; fill: green; }]]>
        </style>
    </defs>
    <path id="1mm"           d="m 648.06337,337.12369 36.416,0"/>
    <path id="Retrosplenial" d="m 611.70703,265.69727 0.38477,1.86328 -0.5625,3.19531 -1.88086,3.94726 -4.88477,2.44336 -6.01367,0.375 -5.35168,-0.1621 -5.17371,4.10937 -4.50977,4.69727 -5.07422,5.26171 -4.69921,4.69922 0.37695,23.30274 0.0762,3.16797 4.24609,-1.28907 5.82618,-3.38281 4.50976,-3.38086 7.14063,-3.38281 7.70508,0 9.20898,2.63086 8.64453,3.19336 2.63281,3.38281 2.63086,3.38281 5.26172,3.75977 4.69727,0.375 3.75976,-1.87891 6.38868,-5.26172 6.01367,-5.45117 2.25586,-3.19336 5.07421,-8.83398 6.20118,-8.64453 4.51172,-5.63867 2.81836,-7.70508 2.44335,-10.14649 1.12696,-10.33789 -0.1875,-7.32812 1.30859,-2.90625 -2.43555,3.28125 -2.63281,7.33008 -2.81836,6.38867 -4.69726,4.32226 -7.33008,4.13477 -5.82617,4.13476 -4.32227,2.06836 -6.76562,2.25391 -6.95313,0.1875 -7.14062,-2.06641 -6.95508,-2.81836 -3.19336,-3.00781 -5.26367,-10.14844 -0.57227,-0.92382 z"/>
    <path id="Motor"         d="m 502.54004,305.23535 0,0 6.37793,-2.53027 7.51758,-1.50391 9.01953,-2.44336 8.45703,-1.5039 7.70508,-0.75196 6.01367,1.31641 6.57812,1.50391 6.57813,0.75195 5.26172,-0.75195 6.20117,-2.63086 1.69727,-0.25196 -0.006,-0.3125 4.69921,-4.69922 5.07422,-5.26171 4.50977,-4.69727 5.17385,-4.10937 0,0 1.3222,-11.39551 0,0 0,0 -7.05859,3.85253 -4.32422,2.44336 -8.64453,2.81835 -7.70508,-0.375 -4.88672,-1.1289 -6.38867,-3.57031 -5.63867,-5.26172 -4.69727,-5.63867 -3.75976,-4.69727 -3.57031,-1.87891 -5.44922,-2.44336 -3.94727,-1.5039 -4.50977,-3.38281 -1.5371,-2.83594 -4.10157,-0.17188 -4.13476,-3.19336 0.28125,-8.89843 -1.97266,0.4414 -5.44922,2.63086 -3.19531,2.63086 -0.1875,4.13477 -0.375,13.71875 0.1875,12.77929 0,12.02735 -0.1875,10.71289 -0.37695,9.77148 -0.55158,6.29005 z"/>
    <path id="Frontal"       d="m 502.54004,305.23535 0.55176,-6.29004 0.37695,-9.77148 0.1875,-10.71289 0,-12.02735 -0.1875,-12.77929 0.375,-13.71875 0.1875,-4.13477 3.19531,-2.63086 5.44922,-2.63086 1.97266,-0.4414 0.30468,-9.64649 -12.05468,8.875 c 1.1e-4,8.7e-4 0.006,0.084 0.006,0.084 l -12.7793,12.59179 -3.19531,0.3125 0,5.89063 0,20.29492 0.37695,25.74805 -0.56445,9.58398 2.0664,4.69727 1.45313,2.79101 6.06445,-2.97851 6.21373,-3.10646 z"/>
    <path id="S1-face"       d="m 514.95312,220.45117 -0.58593,18.54492 4.13476,3.19336 4.51172,0.18946 10.71094,0.1875 8.83398,2.81836 14.28125,0.75195 16.16211,1.6914 15.22266,2.63086 6.20117,-0.375 7.89453,-3.00781 4.40037,-3.11719 2.74026,-4.58789 1.81445,-3.95312 0.44141,-6.75781 -0.37696,-6.95508 -1.74414,-6.45117 -2.39062,-3.13282 -6.38867,-3.00586 -10.71289,-1.3164 -8.45704,-0.56445 -9.77148,-0.375 -7.89258,0 -5.45117,0.1875 -7.89258,2.63085 -8.08008,2.82032 -6.57812,0.75 -5.26172,1.1289 -2.78516,-1.41797 -11.875,6.67969 z"/>
    <path id="S1-limb"       d="m 594.72075,265.96385 4.02925,-3.47752 3.38281,-3.75781 3.57031,-4.88672 0.93946,-6.57813 0.0781,-3.30469 -4.40032,3.11719 -7.89453,3.00781 -6.20117,0.375 -15.22266,-2.63086 -16.16211,-1.6914 -14.28125,-0.75195 -8.83398,-2.81836 -10.71094,-0.1875 -0.41015,-0.0176 1.5371,2.83594 4.50977,3.38281 3.94727,1.5039 5.44922,2.44336 3.57031,1.87891 3.75976,4.69727 4.69727,5.63867 5.63867,5.26172 6.38867,3.57031 4.88672,1.1289 7.70508,0.375 8.64453,-2.81835 4.32422,-2.44336 z"/>
    <path id="V2L"           d="m 611.43359,232.98633 5.35743,1.31055 7.89257,0.37695 8.45703,-1.12891 9.58399,-2.44336 9.20898,-4.13281 9.77344,-5.63867 8.45508,-4.88672 5.45117,-4.32227 1.31445,-4.32226 0.50391,-6.53906 -2.19531,-0.41407 -2.50977,-1.12304 -0.30859,4.31836 -2.81836,1.6914 -7.89258,2.25391 -7.70703,2.25586 -6.01367,2.81836 -7.14063,2.82031 -7.14062,1.87891 -6.95508,0.5625 -6.20117,0.75195 -9.31055,2.25781 0.10156,0.37305 0.37696,6.95508 -0.28321,4.32617 z"/>
    <path id="V1"            d="m 611.41211,242.73633 6.50586,10.91797 6.95312,5.63867 5.63868,3.00586 8.26953,2.63086 7.51562,0 6.95508,-2.44336 7.32812,-5.07422 8.08204,-6.57617 9.58398,-7.70508 4.36914,-4.56836 0.32813,-1.25781 0.9414,-7.33008 -0.18945,-11.27539 0,-14.2832 -0.10938,-1.9961 -6.15234,-1.16015 -0.50391,6.53906 -1.31445,4.32226 -5.45117,4.32227 -8.45508,4.88672 -9.77344,5.63867 -9.20898,4.13281 -9.58399,2.44336 -8.45703,1.12891 -7.89257,-0.37695 -5.35743,-1.31055 -0.28125,4.31836 0.25977,5.43164 z"/>
    <path id="V2M"           d="m 611.70703,265.69727 0.57227,0.92382 5.26367,10.14844 3.19336,3.00781 6.95508,2.81836 7.14062,2.06641 6.95313,-0.1875 6.76562,-2.25391 4.32227,-2.06836 5.82617,-4.13476 7.33008,-4.13477 4.69726,-4.32226 2.81836,-6.38867 2.63281,-7.33008 2.43555,-3.28125 2.07422,-4.61133 1.92578,-7.38672 -4.36914,4.56836 -9.58398,7.70508 -8.08204,6.57617 -7.32812,5.07422 -6.95508,2.44336 -7.51562,0 -8.26953,-2.63086 -5.63868,-3.00586 -6.95312,-5.63867 -6.50586,-10.91797 0.11719,2.46094 0,6.95312 -0.56446,5.26172 0,4.69922 0.74219,3.58594 z"/>
    <path id="Parietal"      d="m 606.72068,243.95898 -0.0782,3.30469 -0.93946,6.57813 -3.57031,4.88672 -3.38281,3.75781 -4.0292,3.47752 -1.32238,11.39553 5.35158,0.1621 6.01367,-0.375 4.88477,-2.44336 1.88086,-3.94726 0.5625,-3.19531 -1.12696,-5.44922 0,-4.69922 0.56446,-5.26172 0,-6.95312 -0.37696,-7.89258 0.12305,-1.88672 -1.81445,3.95312 -2.74021,4.58789 0,0 z"/>
    <path id="Orbital"       d="m 526.07031,185.71094 -1.17773,-7.41797 -2.25586,-6.20117 -2.81836,-5.07422 -3.94727,-3.19531 -4.50976,-3.00586 -1.87891,-4.13477 0.1875,-7.14062 -0.83789,-11.73243 -2.54492,4.9668 -4.88672,5.26172 -0.75195,7.14062 -2.63086,6.01368 -3.19531,7.51757 -3.94532,13.90625 -1.6914,11.83985 -0.93946,10.33789 -0.75195,11.83789 -0.56445,18.23047 0,7.45312 3.19531,-0.3125 12.7793,-12.59179 c 0,0 -0.42361,-3.33453 -0.51758,-7.35157 -0.047,-2.00851 -0.0103,-4.18775 0.20117,-6.20507 0.21142,-2.01733 0.5981,-3.87383 1.25586,-5.23633 2.63104,-5.45001 2.63086,-5.63672 2.63086,-5.63672 l 3.75977,-3.57031 3.94531,-4.69922 2.81836,-3.94727 3.00781,-3.19336 6.06445,-3.85937 z"/>
    <path id="Insula"        d="m 591.63477,160.85938 -4.16211,-0.23047 -10.52344,1.12695 -8.45703,2.25586 -7.33008,3.00586 -10.89844,5.07422 -9.39648,7.14258 -7.33008,5.63671 -7.33008,0.75196 -6.20117,3.94726 -3.00781,3.19336 -2.81836,3.94727 -3.94531,4.69922 -3.75977,3.57031 c 0,0 1.8e-4,0.18671 -2.63086,5.63672 -0.65776,1.3625 -1.04444,3.219 -1.25586,5.23633 -0.21142,2.01732 -0.24815,4.19656 -0.20117,6.20507 0.0929,3.97116 0.50225,7.19261 0.51172,7.26758 l 13.16015,-9.6875 12.0293,-6.76562 7.89258,-8.64453 8.83203,-6.20118 9.77344,-7.89453 11.65039,-4.69726 10.14844,-2.06836 13.71875,-0.375 1.19336,0.30664 0.33789,-22.43945 z"/>
    <path id="Auditory"      d="m 611.23828,221.33203 9.31055,-2.25781 6.20117,-0.75195 6.95508,-0.5625 7.14062,-1.87891 7.14063,-2.82031 6.01367,-2.81836 7.70703,-2.25586 7.89258,-2.25391 2.81836,-1.6914 0.30859,-4.31836 -4.63086,-2.07227 -10.14843,-6.01367 -7.14063,-5.07422 -9.96094,-3.38281 -11.65234,-3.38281 -8.83203,-2.63086 -8.26953,0.1875 -7.70508,3.00781 -7.63867,4.28515 1.8125,4.17188 1.88086,3.38281 2.63086,4.88477 2.4414,4.32422 2.06836,6.95312 1.87891,6.38867 1.77734,6.58008 z"/>
    <path id="S2"            d="m 527.93359,212.95898 2.78516,1.41797 5.26172,-1.1289 6.57812,-0.75 8.08008,-2.82032 7.89258,-2.63085 5.45117,-0.1875 7.89258,0 9.77148,0.375 8.45704,0.56445 10.71289,1.3164 6.38867,3.00586 2.39062,3.13282 -0.13476,-0.50196 -1.87891,-6.38867 -2.06836,-6.95312 -2.4414,-4.32422 -2.63086,-4.88477 -1.88086,-3.38281 -1.8125,-4.17188 -0.0664,0.0371 -6.57812,-1.6914 -13.71875,0.375 -10.14844,2.06836 -11.65039,4.69726 -9.77344,7.89453 -8.83203,6.20118 -7.89258,8.64453 -0.1543,0.0859 z"/>
    <path id="Piriform"      d="m 629.08789,137.55664 -0.082,-0.043 -6.01367,-7.14258 -7.14063,-6.38867 -8.08203,-3.94726 -7.89258,-2.63086 -6.95312,-0.37696 -7.51758,0.75196 -9.20898,0.75195 -11.1543,4.58008 -0.49805,1.43359 -4.50976,5.26172 -3.94727,8.45703 -7.14062,6.57813 -8.45704,8.64453 -7.33007,6.57812 -4.13282,0 -2.82031,-2.44336 -1.12695,-3.19531 -0.75196,-6.57617 -1.8789,-5.26367 -3.19531,-4.32227 -4.13477,-5.44922 -2.25391,-1.12695 -2.63085,3.38281 -1.40235,2.73828 0.83789,11.73243 -0.1875,7.14062 1.87891,4.13477 4.50976,3.00586 3.94727,3.19531 2.81836,5.07422 2.25586,6.20117 1.17773,7.41797 0.13672,-0.0879 7.33008,-0.75196 7.33008,-5.63671 9.39648,-7.14258 10.89844,-5.07422 7.33008,-3.00586 8.45703,-2.25586 10.52344,-1.12695 6.76562,0.375 10.71289,-1.31446 0.0566,0.0195 4.64063,-3.02734 6.57812,-2.44336 5.07422,-1.8789 3.94727,-2.44336 2.63086,-6.20118 1.20898,-6.1582 z"/>
    <path id="Entorhinal"    d="m 629.08789,137.55664 -1.20898,6.1582 -2.63086,6.20118 -3.94727,2.44336 -5.07422,1.8789 -6.57812,2.44336 -4.64063,3.02734 9.15235,2.98633 11.08789,2.06836 7.70507,2.81836 6.20118,0.75195 6.57812,-0.37695 5.63672,3.57031 7.51758,3.00782 6.01367,1.5039 7.51758,5.07422 4.69922,7.51758 6.05273,4.98437 0.71289,-8.55664 0,-11.08789 -0.18945,-10.89843 -0.375,-13.15625 0.375,-8.64454 -0.1875,-9.20898 -1.12695,-8.64453 -1.69141,-4.88672 -3.38281,-4.32227 -5.45117,-0.56445 -5.44922,1.12891 -6.01368,0.5625 -9.68945,1.49023 -0.084,11.10156 -3.94531,7.33008 -5.45118,5.44922 -5.63672,0.1875 -6.49609,-3.33789 z"/>
    <path id="Amygdala"      d="m 565.04297,123.11133 11.1543,-4.58008 9.20898,-0.75195 7.51758,-0.75196 6.95312,0.37696 7.89258,2.63086 8.08203,3.94726 7.14063,6.38867 6.01367,7.14258 6.57812,3.38086 5.63672,-0.1875 5.45118,-5.44922 3.94531,-7.33008 0.084,-11.10156 -0.084,0.0137 -3.38086,-1.8789 -5.07422,-4.88672 -6.01563,-5.44922 -3.94531,-3.38281 -3.57031,-3.947268 -3.57227,-3.945313 -3.19336,-3.007812 -4.13476,-3.382813 -5.26172,-3.195312 -4.69922,0.564453 -3.19531,2.255859 -14.09375,6.953125 -9.39649,1.126953 -6.39062,2.06836 -4.69727,5.636718 -3.94726,5.63867 -0.56445,5.07422 0.56445,7.14063 -1.00586,2.88867 z"/>
    <path id="Ectorhinal"    d="m 591.63477,160.85938 -0.33789,22.43945 5.38476,1.38476 7.70508,-4.32226 7.70508,-3.00781 8.26953,-0.1875 8.83203,2.63086 11.65234,3.38281 9.96094,3.38281 7.14063,5.07422 10.14843,6.01367 7.14063,3.19531 8.34765,1.57422 -0.45312,-8.33984 0.0391,-0.46485 -6.05273,-4.98437 -4.69922,-7.51758 -7.51758,-5.07422 -6.01367,-1.5039 -7.51758,-3.00782 -5.63672,-3.57031 -6.57812,0.37695 -6.20118,-0.75195 -7.70507,-2.81836 -11.08789,-2.06836 -9.20899,-3.00586 -10.71289,1.31446 -2.60351,-0.14453 z"/>
    <path id="Cingulate"     d="m 533.17383,333.01758 -0.0137,-0.24414 7.70703,-0.56446 8.83203,-0.75195 7.70508,-0.93945 8.26953,-2.44336 6.76562,-4.88477 1.95508,-0.59179 -0.0762,-3.16797 -0.37109,-22.99024 -1.69727,0.25196 -6.20117,2.63086 -5.26172,0.75195 -6.57813,-0.75195 -6.57812,-1.50391 -6.01367,-1.31641 -7.70508,0.75196 -8.45703,1.5039 -9.01953,2.44336 -7.51758,1.50391 -6.37793,2.53027 0,0 2.62012,2.91895 4.32226,2.25586 4.13281,1.31445 3.75977,0.93945 4.32227,1.69141 3.19531,2.44336 0.93945,4.32226 0.75195,4.88672 2.25391,3.75781 z"/>
    <path id="Infralimbic"   d="m 533.17383,333.01758 -4.33594,-3.25196 -2.25391,-3.75781 -0.75195,-4.88672 -0.93945,-4.32226 -3.19531,-2.44336 -4.32227,-1.69141 -3.75977,-0.93945 -4.13281,-1.31445 -4.32226,-2.25586 -2.62012,-2.91895 -6.21387,3.10645 -6.06445,2.97851 3.24609,6.23047 3.57031,4.13477 3.75782,2.63086 6.20312,1.8789 3.38282,2.06836 1.5039,3.38281 -0.18945,5.44922 0.56445,7.51758 0.56445,5.82617 4.13282,2.63086 5.63867,1.31446 4.13476,-2.44336 4.50977,-5.26172 2.44336,-4.32227 z"/>
</svg>
